# xmcd
#
# Track frame offsets: 
#        150
#        12881
#        38641
#        53584
#        71201
#        94026
#        110612
#        128977
#        144380
#        166942
#        195756
#        217300
#
# Disc length: 3158 seconds
#
# Revision: 0
# Processed by: cddbd v1.5.1PL2 Copyright (c) Steve Scherf et al.
# Submitted via: ExactAudioCopy v0.95b3
#
DISCID=a40c540c
DTITLE=Karnea - Sublime Follia
DYEAR=2003
DGENRE=Alternative
TTITLE0=La Mela D'Oro
TTITLE1=L'Affanno
TTITLE2=Kombo
TTITLE3=La Matta
TTITLE4=Del Vento
TTITLE5=L'Essenziale
TTITLE6=Vile
TTITLE7=Scomodi Shocks
TTITLE8=Acerbero
TTITLE9=Ho Letto Il Tuo Diario
TTITLE10=Polvere
TTITLE11=Zoo
EXTD=
EXTT0=
EXTT1=
EXTT2=
EXTT3=
EXTT4=
EXTT5=
EXTT6=
EXTT7=
EXTT8=
EXTT9=
EXTT10=
EXTT11=
PLAYORDER=
